RBDS021runT25_grf
version=1
nRows=27
nColumns=19
inDegrees=no
endheader
time	ground_force_r_vx	ground_force_r_vy	ground_force_r_vz	ground_force_r_px	ground_force_r_py	ground_force_r_pz	ground_force_r_mx	ground_force_r_my	ground_force_r_mz	ground_force_l_vx	ground_force_l_vy	ground_force_l_vz	ground_force_l_px	ground_force_l_py	ground_force_l_pz	ground_force_l_mx	ground_force_l_my	ground_force_l_mz
     14.99900000	   -117.41753975	   1285.22899949	    -20.17174640	      1.87756012	      0.00000000	      1.05022816	      0.00000000	      6.36898905	      0.00000000	      0.00000000	      0.00000000	      0.00000000	      0.00000000	      0.00000000	      0.00000000	      0.00000000	      0.00000000	      0.00000000
     15.00000000	   -118.64467864	   1297.51761018	    -20.97963515	      1.87551223	      0.00000000	      1.05011159	      0.00000000	      6.45079202	      0.00000000	      0.00000000	      0.00000000	      0.00000000	      0.00000000	      0.00000000	      0.00000000	      0.00000000	      0.00000000	      0.00000000
     15.00100000	   -119.50456264	   1309.06704348	    -21.93503527	      1.87344266	      0.00000000	      1.05004137	      0.00000000	      6.50899649	      0.00000000	      0.00000000	      0.00000000	      0.00000000	      0.00000000	      0.00000000	      0.00000000	      0.00000000	      0.00000000	      0.00000000
     15.00200000	   -120.36444664	   1320.61647677	    -22.89043540	      1.87137309	      0.00000000	      1.04997115	      0.00000000	      6.56720095	      0.00000000	      0.00000000	      0.00000000	      0.00000000	      0.00000000	      0.00000000	      0.00000000	      0.00000000	      0.00000000	      0.00000000
     15.00300000	   -121.22433065	   1332.16591007	    -23.84583552	      1.86930352	      0.00000000	      1.04990093	     -0.00000000	      6.62540542	      0.00000000	      0.00000000	      0.00000000	      0.00000000	      0.00000000	      0.00000000	      0.00000000	      0.00000000	      0.00000000	      0.00000000
     15.00400000	   -121.81958730	   1343.22084481	    -24.88623089	      1.86722280	      0.00000000	      1.04985950	     -0.00000000	      6.66880200	      0.00000000	      0.00000000	      0.00000000	      0.00000000	      0.00000000	      0.00000000	      0.00000000	      0.00000000	      0.00000000	      0.00000000
     15.00500000	   -122.28253028	   1354.02853028	    -25.96912387	      1.86513650	      0.00000000	      1.04983248	     -0.00000000	      6.70479464	      0.00000000	      0.00000000	      0.00000000	      0.00000000	      0.00000000	      0.00000000	      0.00000000	      0.00000000	      0.00000000	      0.00000000
     15.00600000	   -122.74547325	   1364.83621574	    -27.05201686	      1.86305020	      0.00000000	      1.04980545	     -0.00000000	      6.74078728	      0.00000000	      0.00000000	      0.00000000	      0.00000000	      0.00000000	      0.00000000	      0.00000000	      0.00000000	      0.00000000	      0.00000000
     15.00700000	   -123.06935707	   1375.39722805	    -28.16897379	      1.86095968	      0.00000000	      1.04979155	     -0.00000000	      6.77007716	      0.00000000	      0.00000000	      0.00000000	      0.00000000	      0.00000000	      0.00000000	      0.00000000	      0.00000000	      0.00000000	      0.00000000
     15.00800000	   -123.11512255	   1385.46489401	    -29.35405862	      1.85886069	      0.00000000	      1.04980390	     -0.00000000	      6.78596155	      0.00000000	      0.00000000	      0.00000000	      0.00000000	      0.00000000	      0.00000000	      0.00000000	      0.00000000	      0.00000000	      0.00000000
     15.00900000	   -123.16088803	   1395.53255998	    -30.53914344	      1.85676171	      0.00000000	      1.04981624	     -0.00000000	      6.80184594	      0.00000000	      0.00000000	      0.00000000	      0.00000000	      0.00000000	      0.00000000	      0.00000000	      0.00000000	      0.00000000	      0.00000000
     15.01000000	   -123.20665351	   1405.60022595	    -31.72422827	      1.85466272	      0.00000000	      1.04982859	     -0.00000000	      6.81773033	      0.00000000	      0.00000000	      0.00000000	      0.00000000	      0.00000000	      0.00000000	      0.00000000	      0.00000000	      0.00000000	      0.00000000
     15.01100000	   -122.82449695	   1414.93223594	    -32.98227349	      1.85255423	      0.00000000	      1.04987596	     -0.00000000	      6.81614285	      0.00000000	      0.00000000	      0.00000000	      0.00000000	      0.00000000	      0.00000000	      0.00000000	      0.00000000	      0.00000000	      0.00000000
     15.01200000	   -122.44234039	   1424.26424593	    -34.24031872	      1.85044573	      0.00000000	      1.04992333	     -0.00000000	      6.81455538	      0.00000000	      0.00000000	      0.00000000	      0.00000000	      0.00000000	      0.00000000	      0.00000000	      0.00000000	      0.00000000	      0.00000000
     15.01300000	   -122.06018383	   1433.59625592	    -35.49836394	      1.84833724	      0.00000000	      1.04997070	     -0.00000000	      6.81296790	      0.00000000	      0.00000000	      0.00000000	      0.00000000	      0.00000000	      0.00000000	      0.00000000	      0.00000000	      0.00000000	      0.00000000
     15.01400000	   -121.39171830	   1442.44140387	    -36.78392932	      1.84622400	      0.00000000	      1.05003826	     -0.00000000	      6.80171522	      0.00000000	      0.00000000	      0.00000000	      0.00000000	      0.00000000	      0.00000000	      0.00000000	      0.00000000	      0.00000000	      0.00000000
     15.01500000	   -120.58009829	   1451.04312079	    -38.08325477	      1.84410838	      0.00000000	      1.05011593	     -0.00000000	      6.78562993	      0.00000000	      0.00000000	      0.00000000	      0.00000000	      0.00000000	      0.00000000	      0.00000000	      0.00000000	      0.00000000	      0.00000000
     15.01600000	   -119.76847829	   1459.64483772	    -39.38258023	      1.84199276	      0.00000000	      1.05019360	     -0.00000000	      6.76954463	      0.00000000	      0.00000000	      0.00000000	      0.00000000	      0.00000000	      0.00000000	      0.00000000	      0.00000000	      0.00000000	      0.00000000
     15.01700000	   -118.81606518	   1468.00473655	    -40.68479319	      1.83987533	      0.00000000	      1.05027971	     -0.00000000	      6.74966577	      0.00000000	      0.00000000	      0.00000000	      0.00000000	      0.00000000	      0.00000000	      0.00000000	      0.00000000	      0.00000000	      0.00000000
     15.01800000	   -117.58206586	   1475.88099919	    -41.99278117	      1.83775426	      0.00000000	      1.05038273	     -0.00000000	      6.72219976	      0.00000000	      0.00000000	      0.00000000	      0.00000000	      0.00000000	      0.00000000	      0.00000000	      0.00000000	      0.00000000	      0.00000000
     15.01900000	   -116.34806655	   1483.75726184	    -43.30076914	      1.83563319	      0.00000000	      1.05048575	     -0.00000000	      6.69473375	      0.00000000	      0.00000000	      0.00000000	      0.00000000	      0.00000000	      0.00000000	      0.00000000	      0.00000000	      0.00000000	      0.00000000
     15.02000000	   -115.11406724	   1491.63352448	    -44.60875712	      1.83351212	      0.00000000	      1.05058876	     -0.00000000	      6.66726775	      0.00000000	      0.00000000	      0.00000000	      0.00000000	      0.00000000	      0.00000000	      0.00000000	      0.00000000	      0.00000000	      0.00000000
     15.02100000	   -113.47258177	   1498.78730528	    -45.89330109	      1.83138663	      0.00000000	      1.05071211	     -0.00000000	      6.63149753	      0.00000000	      0.00000000	      0.00000000	      0.00000000	      0.00000000	      0.00000000	      0.00000000	      0.00000000	      0.00000000	      0.00000000
     15.02200000	   -111.83109631	   1505.94108607	    -47.17784507	      1.82926114	      0.00000000	      1.05083546	     -0.00000000	      6.59572731	      0.00000000	      0.00000000	      0.00000000	      0.00000000	      0.00000000	      0.00000000	      0.00000000	      0.00000000	      0.00000000	      0.00000000
     15.02300000	   -110.18961084	   1513.09486687	    -48.46238905	      1.82713565	      0.00000000	      1.05095881	     -0.00000000	      6.55995709	      0.00000000	      0.00000000	      0.00000000	      0.00000000	      0.00000000	      0.00000000	      0.00000000	      0.00000000	      0.00000000	      0.00000000
     15.02400000	   -108.29093653	   1519.76699106	    -49.71111265	      1.82500752	      0.00000000	      1.05109242	     -0.00000000	      6.52056548	      0.00000000	      0.00000000	      0.00000000	      0.00000000	      0.00000000	      0.00000000	      0.00000000	      0.00000000	      0.00000000	      0.00000000
     15.02500000	   -106.26366781	   1526.19828696	    -50.94192607	      1.82287807	      0.00000000	      1.05123115	     -0.00000000	      6.47936318	      0.00000000	      0.00000000	      0.00000000	      0.00000000	      0.00000000	      0.00000000	      0.00000000	      0.00000000	      0.00000000	      0.00000000
